<svg width="16" height="12" viewBox="0 0 16 12" fill="none" xmlns="http://www.w3.org/2000/svg">
<path fill-rule="evenodd" clip-rule="evenodd" d="M7.92448 7.60917L7.99976 7.60919L8.16815 7.60976C9.45521 7.61824 12.3965 7.74826 12.3965 9.74184C12.3965 11.7223 9.55774 11.8515 8.18821 11.8599L7.6808 11.8599C6.39367 11.8514 3.45181 11.7216 3.45181 9.7305C3.45181 7.74752 6.39367 7.61819 7.6808 7.60976L7.8492 7.60919C7.87533 7.60917 7.90044 7.60917 7.92448 7.60917ZM7.92448 8.60917C6.34048 8.60917 4.45181 8.80384 4.45181 9.7305C4.45181 10.6362 6.22775 10.8479 7.7797 10.8599L7.92448 10.8605C9.50848 10.8605 11.3965 10.6665 11.3965 9.74184C11.3965 8.80584 9.50848 8.60917 7.92448 8.60917ZM13.2269 7.33864C14.8422 7.58064 15.1815 8.3393 15.1815 8.9333C15.1815 9.29597 15.0389 9.95797 14.0855 10.3213C14.0269 10.3433 13.9669 10.354 13.9075 10.354C13.7062 10.354 13.5162 10.2313 13.4402 10.032C13.3415 9.77397 13.4715 9.48464 13.7295 9.38664C14.1815 9.21464 14.1815 9.02464 14.1815 8.9333C14.1815 8.6413 13.8102 8.4373 13.0782 8.32797C12.8055 8.28664 12.6169 8.03264 12.6575 7.75864C12.6982 7.4853 12.9515 7.3033 13.2269 7.33864ZM3.19075 7.75864C3.23141 8.03264 3.04275 8.28664 2.77008 8.32797C2.03808 8.4373 1.66675 8.6413 1.66675 8.9333C1.66675 9.02464 1.66675 9.21397 2.11941 9.38664C2.37741 9.48464 2.50741 9.77397 2.40875 10.032C2.33275 10.2313 2.14275 10.354 1.94141 10.354C1.88208 10.354 1.82208 10.3433 1.76341 10.3213C0.809415 9.9573 0.666748 9.2953 0.666748 8.9333C0.666748 8.33997 1.00608 7.58064 2.62208 7.33864C2.89741 7.30397 3.14941 7.4853 3.19075 7.75864ZM7.92448 0.666504C9.60448 0.666504 10.9705 2.03317 10.9705 3.7125C10.9705 5.39184 9.60448 6.7585 7.92448 6.7585H7.90648C7.09315 6.75584 6.33115 6.43717 5.76048 5.86117C5.18848 5.28584 4.87581 4.52184 4.87912 3.7105C4.87912 2.03317 6.24515 0.666504 7.92448 0.666504ZM7.92448 1.6665C6.79648 1.6665 5.87913 2.5845 5.87913 3.7125C5.87715 4.25917 6.08648 4.7705 6.46981 5.1565C6.85315 5.5425 7.36381 5.7565 7.90781 5.7585L7.92448 6.2585V5.7585C9.05248 5.7585 9.97048 4.84117 9.97048 3.7125C9.97048 2.5845 9.05248 1.6665 7.92448 1.6665ZM12.0505 1.3195C13.2225 1.51217 14.0738 2.51484 14.0738 3.7035C14.0711 4.90017 13.1771 5.92684 11.9938 6.09284C11.9705 6.09617 11.9471 6.0975 11.9245 6.0975C11.6791 6.0975 11.4651 5.91684 11.4298 5.66684C11.3918 5.39284 11.5818 5.14017 11.8558 5.10217C12.5491 5.00484 13.0725 4.4035 13.0738 3.70217C13.0738 3.00684 12.5751 2.41884 11.8878 2.30617C11.6158 2.2615 11.4311 2.00417 11.4758 1.7315C11.5211 1.45884 11.7765 1.27617 12.0505 1.3195ZM4.37315 1.7315C4.41781 2.00417 4.23315 2.2615 3.96115 2.30617C3.27381 2.41884 2.77515 3.00684 2.77515 3.7035C2.77648 4.4035 3.29981 5.0055 3.99248 5.10217C4.26648 5.14017 4.45648 5.39284 4.41848 5.66684C4.38315 5.91684 4.16915 6.0975 3.92381 6.0975C3.90115 6.0975 3.87781 6.09617 3.85448 6.09284C2.67115 5.92684 1.77781 4.90017 1.77515 3.70484C1.77515 2.51484 2.62648 1.51217 3.79848 1.3195C4.07915 1.2755 4.32781 1.46017 4.37315 1.7315Z" fill="white"/>
</svg>
